ffmpeg started on 2025-06-23 at 21:08:17
Report written to "D:\Convert\FFMetrics\reports\ssim_report-6.txt"
Log level: 32
Command line:
ffmpeg -hide_banner -nostdin -i "G:\\\xc0\xed\xe8\xec\xe5\\[\xd2\xee\xef-4]\\\xcc\xee\xe6\xe5\xf2, \xff \xe2\xf1\xf2\xf0\xe5\xf7\xf3 \xf2\xe5\xe1\xff \xe2 \xef\xee\xe4\xe7\xe5\xec\xe5\xeb\xfc\xe5\\\xd2\xc2-2\\Danmachi_Sword_Oratoria_[08]_[AniLibria_TV]_[HDTV-Rip]_HEVC.mkv" -i "G:\\\xc0\xed\xe8\xec\xe5\\[\xd2\xee\xef-4]\\\xcc\xee\xe6\xe5\xf2, \xff \xe2\xf1\xf2\xf0\xe5\xf7\xf3 \xf2\xe5\xe1\xff \xe2 \xef\xee\xe4\xe7\xe5\xec\xe5\xeb\xfc\xe5\\\xd2\xc2-2\\Danmachi_Sword_Oratoria_[08]_[AniLibria_TV]_[HDTV-Rip].mkv" -lavfi "[0:v]settb=AVTB,setpts=PTS-STARTPTS,format=pix_fmts=yuv420p10,fps=24000/1001,scale=1280:720:flags=bicubic[main];[1:v]settb=AVTB,setpts=PTS-STARTPTS,format=pix_fmts=yuv420p,fps=24000/1001,scale=1280:720:flags=bicubic[ref];[main][ref]ssim=eof_action=endall:stats_file='D\\:/Convert/FFMetrics/logs/ssim_logfile-6.txt'" -f null -
Input #0, matroska,webm, from 'G:\Аниме\[Топ-4]\Может, я встречу тебя в подземелье\ТВ-2\Danmachi_Sword_Oratoria_[08]_[AniLibria_TV]_[HDTV-Rip]_HEVC.mkv':
  Metadata:
    ENCODER         : Lavf61.7.100
  Duration: 00:23:59.81, start: -0.021000, bitrate: 764 kb/s
  Stream #0:0(rus): Video: hevc (Main 10), yuv420p10le(tv, bt709, progressive), 1280x720 [SAR 1:1 DAR 16:9], 23.98 fps, 23.98 tbr, 1k tbn (default) (forced)
      Metadata:
        title           : [Leopard-Raws]
        ENCODER         : Lavc61.19.100 libx265
        BPS             : 565057
        DURATION        : 00:23:59.771708333
        NUMBER_OF_FRAMES: 34520
        NUMBER_OF_BYTES : 101694240
        _STATISTICS_WRITING_APP: mkvpropedit v66.0.0 ('Josie') 64-bit
        _STATISTICS_WRITING_DATE_UTC: 2025-06-23 11:03:07
        _STATISTICS_TAGS: BPS DURATION NUMBER_OF_FRAMES NUMBER_OF_BYTES
  Stream #0:1(rus): Audio: aac (LC), 48000 Hz, stereo, fltp (default) (forced)
      Metadata:
        title           : LeeAnnushka & Sharon
        ENCODER         : Lavc61.19.100 aac
        BPS             : 194718
        DURATION        : 00:23:59.786000000
        NUMBER_OF_FRAMES: 67491
        NUMBER_OF_BYTES : 35044037
        _STATISTICS_WRITING_APP: mkvpropedit v66.0.0 ('Josie') 64-bit
        _STATISTICS_WRITING_DATE_UTC: 2025-06-23 11:03:07
        _STATISTICS_TAGS: BPS DURATION NUMBER_OF_FRAMES NUMBER_OF_BYTES
  Stream #0:2(rus): Subtitle: ass (ssa) (default) (forced)
      Metadata:
        title           : Надписи
        BPS             : 69
        DURATION        : 00:22:49.960000000
        NUMBER_OF_FRAMES: 39
        NUMBER_OF_BYTES : 11820
        _STATISTICS_WRITING_APP: mkvpropedit v66.0.0 ('Josie') 64-bit
        _STATISTICS_WRITING_DATE_UTC: 2025-06-23 11:03:07
        _STATISTICS_TAGS: BPS DURATION NUMBER_OF_FRAMES NUMBER_OF_BYTES
  Stream #0:3(rus): Subtitle: ass (ssa)
      Metadata:
        title           : Полные
        BPS             : 192
        DURATION        : 00:23:48.320000000
        NUMBER_OF_FRAMES: 332
        NUMBER_OF_BYTES : 34378
        _STATISTICS_WRITING_APP: mkvpropedit v66.0.0 ('Josie') 64-bit
        _STATISTICS_WRITING_DATE_UTC: 2025-06-23 11:03:07
        _STATISTICS_TAGS: BPS DURATION NUMBER_OF_FRAMES NUMBER_OF_BYTES
Input #1, matroska,webm, from 'G:\Аниме\[Топ-4]\Может, я встречу тебя в подземелье\ТВ-2\Danmachi_Sword_Oratoria_[08]_[AniLibria_TV]_[HDTV-Rip].mkv':
  Metadata:
    encoder         : libebml v1.4.2 + libmatroska v1.6.4
    creation_time   : 2025-01-14T16:52:14.000000Z
  Duration: 00:23:59.79, start: 0.000000, bitrate: 2956 kb/s
  Stream #1:0(rus): Video: h264 (High), yuv420p(tv, bt709, progressive), 1280x720 [SAR 1:1 DAR 16:9], 23.98 fps, 23.98 tbr, 1k tbn (default) (forced)
      Metadata:
        title           : [Leopard-Raws]
        BPS             : 2758936
        DURATION        : 00:23:59.772000000
        NUMBER_OF_FRAMES: 34520
        NUMBER_OF_BYTES : 496529900
        _STATISTICS_WRITING_APP: mkvmerge v66.0.0 ('Josie') 64-bit
        _STATISTICS_WRITING_DATE_UTC: 2025-01-14 16:52:14
        _STATISTICS_TAGS: BPS DURATION NUMBER_OF_FRAMES NUMBER_OF_BYTES
  Stream #1:1(rus): Audio: aac (LC), 48000 Hz, stereo, fltp (default) (forced)
      Metadata:
        title           : LeeAnnushka & Sharon
        BPS             : 192093
        DURATION        : 00:23:59.786000000
        NUMBER_OF_FRAMES: 67490
        NUMBER_OF_BYTES : 34571735
        _STATISTICS_WRITING_APP: mkvmerge v66.0.0 ('Josie') 64-bit
        _STATISTICS_WRITING_DATE_UTC: 2025-01-14 16:52:14
        _STATISTICS_TAGS: BPS DURATION NUMBER_OF_FRAMES NUMBER_OF_BYTES
  Stream #1:2(rus): Subtitle: ass (ssa) (default) (forced)
      Metadata:
        title           : Надписи
        BPS             : 69
        DURATION        : 00:22:49.960000000
        NUMBER_OF_FRAMES: 39
        NUMBER_OF_BYTES : 11820
        _STATISTICS_WRITING_APP: mkvmerge v66.0.0 ('Josie') 64-bit
        _STATISTICS_WRITING_DATE_UTC: 2025-01-14 16:52:14
        _STATISTICS_TAGS: BPS DURATION NUMBER_OF_FRAMES NUMBER_OF_BYTES
  Stream #1:3(rus): Subtitle: ass (ssa)
      Metadata:
        title           : Полные
        BPS             : 192
        DURATION        : 00:23:48.320000000
        NUMBER_OF_FRAMES: 332
        NUMBER_OF_BYTES : 34378
        _STATISTICS_WRITING_APP: mkvmerge v66.0.0 ('Josie') 64-bit
        _STATISTICS_WRITING_DATE_UTC: 2025-01-14 16:52:14
        _STATISTICS_TAGS: BPS DURATION NUMBER_OF_FRAMES NUMBER_OF_BYTES
  Stream #1:4: Attachment: ttf
      Metadata:
        filename        : 9808.ttf
        mimetype        : application/x-truetype-font
  Stream #1:5: Attachment: ttf
      Metadata:
        filename        : 10119.ttf
        mimetype        : application/x-truetype-font
  Stream #1:6: Attachment: ttf
      Metadata:
        filename        : 10323.ttf
        mimetype        : application/x-truetype-font
Stream mapping:
  Stream #0:0 (hevc) -> settb:default
  Stream #1:0 (h264) -> settb:default
  ssim:default -> Stream #0:0 (wrapped_avframe)
  Stream #0:1 -> #0:1 (aac (native) -> pcm_s16le (native))
Output #0, null, to 'pipe:':
  Metadata:
    encoder         : Lavf61.7.100
  Stream #0:0: Video: wrapped_avframe, yuv420p10le(tv, bt709, progressive), 1280x720 [SAR 1:1 DAR 16:9], q=2-31, 200 kb/s, 23.98 fps, 23.98 tbn
      Metadata:
        encoder         : Lavc61.19.100 wrapped_avframe
  Stream #0:1(rus): Audio: pcm_s16le, 48000 Hz, stereo, s16, 1536 kb/s (default) (forced)
      Metadata:
        title           : LeeAnnushka & Sharon
        _STATISTICS_TAGS: BPS DURATION NUMBER_OF_FRAMES NUMBER_OF_BYTES
        BPS             : 194718
        DURATION        : 00:23:59.786000000
        NUMBER_OF_FRAMES: 67491
        NUMBER_OF_BYTES : 35044037
        _STATISTICS_WRITING_APP: mkvpropedit v66.0.0 ('Josie') 64-bit
        _STATISTICS_WRITING_DATE_UTC: 2025-06-23 11:03:07
        encoder         : Lavc61.19.100 pcm_s16le
frame=  583 fps=0.0 q=-0.0 size=N/A time=00:00:24.31 bitrate=N/A speed=  47x    frame= 1141 fps=1101 q=-0.0 size=N/A time=00:00:47.58 bitrate=N/A speed=45.9x    frame= 1511 fps=977 q=-0.0 size=N/A time=00:01:03.02 bitrate=N/A speed=40.7x    frame= 1934 fps=936 q=-0.0 size=N/A time=00:01:20.66 bitrate=N/A speed=39.1x    frame= 2330 fps=905 q=-0.0 size=N/A time=00:01:37.18 bitrate=N/A speed=37.7x    frame= 2756 fps=889 q=-0.0 size=N/A time=00:01:54.94 bitrate=N/A speed=37.1x    frame= 3093 fps=857 q=-0.0 size=N/A time=00:02:09.00 bitrate=N/A speed=35.8x    frame= 3516 fps=851 q=-0.0 size=N/A time=00:02:26.64 bitrate=N/A speed=35.5x    frame= 3993 fps=861 q=-0.0 size=N/A time=00:02:46.54 bitrate=N/A speed=35.9x    frame= 4476 fps=867 q=-0.0 size=N/A time=00:03:06.68 bitrate=N/A speed=36.1x    frame= 5103 fps=899 q=-0.0 size=N/A time=00:03:32.83 bitrate=N/A speed=37.5x    frame= 5605 fps=906 q=-0.0 size=N/A time=00:03:53.77 bitrate=N/A speed=37.8x    frame= 6207 fps=925 q=-0.0 size=N/A time=00:04:18.88 bitrate=N/A speed=38.6x    frame= 6869 fps=951 q=-0.0 size=N/A time=00:04:46.49 bitrate=N/A speed=39.7x    frame= 7545 fps=976 q=-0.0 size=N/A time=00:05:14.68 bitrate=N/A speed=40.7x    frame= 8199 fps=993 q=-0.0 size=N/A time=00:05:41.96 bitrate=N/A speed=41.4x    frame= 8854 fps=1010 q=-0.0 size=N/A time=00:06:09.28 bitrate=N/A speed=42.1x    frame= 9413 fps=1015 q=-0.0 size=N/A time=00:06:32.60 bitrate=N/A speed=42.3x    frame=10034 fps=1024 q=-0.0 size=N/A time=00:06:58.50 bitrate=N/A speed=42.7x    frame=10676 fps=1035 q=-0.0 size=N/A time=00:07:25.27 bitrate=N/A speed=43.2x    frame=11301 fps=1044 q=-0.0 size=N/A time=00:07:51.34 bitrate=N/A speed=43.5x    frame=11933 fps=1051 q=-0.0 size=N/A time=00:08:17.70 bitrate=N/A speed=43.8x    frame=12464 fps=1051 q=-0.0 size=N/A time=00:08:39.85 bitrate=N/A speed=43.8x    frame=13026 fps=1052 q=-0.0 size=N/A time=00:09:03.29 bitrate=N/A speed=43.9x    frame=13507 fps=1048 q=-0.0 size=N/A time=00:09:23.35 bitrate=N/A speed=43.7x    frame=13977 fps=1043 q=-0.0 size=N/A time=00:09:42.95 bitrate=N/A speed=43.5x    frame=14411 fps=1035 q=-0.0 size=N/A time=00:10:01.05 bitrate=N/A speed=43.2x    frame=14879 fps=1031 q=-0.0 size=N/A time=00:10:20.57 bitrate=N/A speed=  43x    frame=15337 fps=1026 q=-0.0 size=N/A time=00:10:39.68 bitrate=N/A speed=42.8x    frame=15904 fps=1028 q=-0.0 size=N/A time=00:11:03.32 bitrate=N/A speed=42.9x    frame=16530 fps=1034 q=-0.0 size=N/A time=00:11:29.43 bitrate=N/A speed=43.1x    frame=17138 fps=1039 q=-0.0 size=N/A time=00:11:54.79 bitrate=N/A speed=43.3x    frame=17695 fps=1040 q=-0.0 size=N/A time=00:12:18.02 bitrate=N/A speed=43.4x    frame=18323 fps=1045 q=-0.0 size=N/A time=00:12:44.22 bitrate=N/A speed=43.6x    frame=18746 fps=1039 q=-0.0 size=N/A time=00:13:01.86 bitrate=N/A speed=43.3x    frame=19186 fps=1034 q=-0.0 size=N/A time=00:13:20.21 bitrate=N/A speed=43.1x    frame=19764 fps=1036 q=-0.0 size=N/A time=00:13:44.32 bitrate=N/A speed=43.2x    frame=20388 fps=1041 q=-0.0 size=N/A time=00:14:10.34 bitrate=N/A speed=43.4x    frame=20955 fps=1042 q=-0.0 size=N/A time=00:14:33.99 bitrate=N/A speed=43.4x    frame=21421 fps=1038 q=-0.0 size=N/A time=00:14:53.43 bitrate=N/A speed=43.3x    frame=21986 fps=1040 q=-0.0 size=N/A time=00:15:16.99 bitrate=N/A speed=43.4x    frame=22446 fps=1036 q=-0.0 size=N/A time=00:15:36.18 bitrate=N/A speed=43.2x    frame=22924 fps=1034 q=-0.0 size=N/A time=00:15:56.12 bitrate=N/A speed=43.1x    frame=23328 fps=1028 q=-0.0 size=N/A time=00:16:12.97 bitrate=N/A speed=42.9x    frame=23850 fps=1028 q=-0.0 size=N/A time=00:16:34.74 bitrate=N/A speed=42.9x    frame=24286 fps=1024 q=-0.0 size=N/A time=00:16:52.92 bitrate=N/A speed=42.7x    frame=24844 fps=1025 q=-0.0 size=N/A time=00:17:16.20 bitrate=N/A speed=42.7x    frame=25243 fps=1020 q=-0.0 size=N/A time=00:17:32.84 bitrate=N/A speed=42.5x    frame=25704 fps=1017 q=-0.0 size=N/A time=00:17:52.07 bitrate=N/A speed=42.4x    frame=26175 fps=1015 q=-0.0 size=N/A time=00:18:11.71 bitrate=N/A speed=42.3x    frame=26669 fps=1014 q=-0.0 size=N/A time=00:18:32.31 bitrate=N/A speed=42.3x    frame=27265 fps=1017 q=-0.0 size=N/A time=00:18:57.17 bitrate=N/A speed=42.4x    frame=27756 fps=1015 q=-0.0 size=N/A time=00:19:17.65 bitrate=N/A speed=42.4x    frame=28304 fps=1017 q=-0.0 size=N/A time=00:19:40.51 bitrate=N/A speed=42.4x    frame=28830 fps=1017 q=-0.0 size=N/A time=00:20:02.45 bitrate=N/A speed=42.4x    frame=29405 fps=1018 q=-0.0 size=N/A time=00:20:26.43 bitrate=N/A speed=42.5x    frame=30019 fps=1021 q=-0.0 size=N/A time=00:20:52.04 bitrate=N/A speed=42.6x    frame=30601 fps=1023 q=-0.0 size=N/A time=00:21:16.31 bitrate=N/A speed=42.7x    frame=31241 fps=1026 q=-0.0 size=N/A time=00:21:43.01 bitrate=N/A speed=42.8x    frame=31786 fps=1027 q=-0.0 size=N/A time=00:22:05.74 bitrate=N/A speed=42.8x    frame=32285 fps=1026 q=-0.0 size=N/A time=00:22:26.55 bitrate=N/A speed=42.8x    frame=32774 fps=1025 q=-0.0 size=N/A time=00:22:46.94 bitrate=N/A speed=42.7x    frame=33308 fps=1025 q=-0.0 size=N/A time=00:23:09.22 bitrate=N/A speed=42.7x    frame=33738 fps=1022 q=-0.0 size=N/A time=00:23:27.15 bitrate=N/A speed=42.6x    frame=34216 fps=1020 q=-0.0 size=N/A time=00:23:47.09 bitrate=N/A speed=42.6x    [Parsed_ssim_10 @ 0000020d180a92c0] SSIM Y:0.989047 (19.604643) U:0.992024 (20.982245) V:0.991695 (20.806808) All:0.989985 (19.993296)
[out#0/null @ 0000020d1573c080] video:14833KiB audio:269964KiB subtitle:0KiB other streams:0KiB global headers:0KiB muxing overhead: unknown
frame=34520 fps=1021 q=-0.0 Lsize=N/A time=00:23:59.77 bitrate=N/A speed=42.6x    
